<svg id="svg" xmlns="http://www.w3.org/2000/svg" xmlns:xlink="http://www.w3.org/1999/xlink" width="400" height="400" viewBox="0, 0, 400,400">
    <g id="svgg">
        <path id="path0" d="M185.652 0.837 C 13.710 14.115,-62.293 223.754,61.408 343.537 C 170.104 448.790,352.576 398.616,392.633 252.460 C 428.804 120.480,321.743 -9.674,185.652 0.837 M223.043 14.318 C 291.167 22.415,350.074 68.284,375.040 132.673 C 387.621 165.122,391.118 209.869,383.390 239.540 C 382.888 241.467,381.874 245.391,381.135 248.261 C 363.751 315.842,308.615 368.464,239.565 383.378 C 214.990 388.686,180.813 388.691,160.460 383.390 C 158.533 382.888,154.609 381.887,151.739 381.166 C 126.799 374.895,98.990 360.325,79.130 343.123 C 68.556 333.964,62.938 328.137,51.378 314.337 C 43.933 305.450,30.489 281.440,25.577 268.261 C -24.320 134.367,82.060 -2.439,223.043 14.318 M120.217 130.227 L 86.087 130.455 86.087 199.973 L 86.087 269.491 121.522 269.746 C 170.516 270.097,176.198 269.403,190.435 261.328 C 243.860 231.022,236.572 153.026,178.489 133.488 C 168.197 130.026,166.304 129.920,120.217 130.227 M222.276 130.232 L 199.770 130.465 205.754 134.678 C 215.839 141.777,224.640 151.710,230.117 162.176 L 232.609 166.938 241.541 166.883 C 277.599 166.665,291.491 208.048,262.174 228.350 C 257.259 231.754,251.090 233.174,241.480 233.116 L 232.488 233.061 230.942 236.313 C 226.030 246.651,216.201 257.968,205.733 265.337 L 199.727 269.565 222.255 269.682 C 258.037 269.867,257.558 269.907,272.609 265.425 C 273.565 265.141,276.224 263.803,278.517 262.454 C 280.809 261.104,282.937 260.000,283.245 260.000 C 283.862 260.000,293.545 252.526,295.675 250.406 C 330.578 215.662,320.740 157.285,276.522 136.750 C 262.672 130.318,258.817 129.855,222.276 130.232 M168.371 169.708 C 193.470 181.506,193.470 218.494,168.371 230.292 C 162.751 232.934,156.523 233.522,137.174 233.242 L 120.870 233.005 120.870 200.000 L 120.870 166.995 137.174 166.758 C 156.523 166.478,162.751 167.066,168.371 169.708 " stroke="none" fill="#000000" fill-rule="evenodd"></path>
    </g>
</svg>